inDegrees=no
num_controls=7
num_derivatives=13
num_iterations=99
num_multipliers=7
num_parameters=0
num_slacks=7
num_states=26
objective=5.463505
objective_accelerations=0.539249
objective_balance=0.103206
objective_effort=0.421142
objective_height=4.297214
objective_ligament=0.102693
solver_duration=1172.418816
status=Solve_Succeeded
success=true
DataType=double
version=3
OpenSimVersion=4.4-2022-07-23-0e9fedc
endheader
time	/jointset/ground_pelvis/pelvis_tilt/value	/jointset/ground_pelvis/pelvis_tx/value	/jointset/ground_pelvis/pelvis_ty/value	/jointset/hip_l/hip_flexion_l/value	/jointset/hip_l/hip_adduction_l/value	/jointset/hip_l/hip_rotation_l/value	/jointset/back/lumbar_extension/value	/jointset/patellofemoral_l/patellar_flexion_l/value	/jointset/knee_l/knee_flexion_l/value	/jointset/knee_l/knee_adduction_l/value	/jointset/knee_l/knee_rotation_l/value	/jointset/ankle_l/ankle_angle_l/value	/jointset/subtalar_l/subtalar_angle_l/value	/jointset/ground_pelvis/pelvis_tilt/speed	/jointset/ground_pelvis/pelvis_tx/speed	/jointset/ground_pelvis/pelvis_ty/speed	/jointset/hip_l/hip_flexion_l/speed	/jointset/hip_l/hip_adduction_l/speed	/jointset/hip_l/hip_rotation_l/speed	/jointset/back/lumbar_extension/speed	/jointset/patellofemoral_l/patellar_flexion_l/speed	/jointset/knee_l/knee_flexion_l/speed	/jointset/knee_l/knee_adduction_l/speed	/jointset/knee_l/knee_rotation_l/speed	/jointset/ankle_l/ankle_angle_l/speed	/jointset/subtalar_l/subtalar_angle_l/speed	/forceset/tau_hip_flexion_l	/forceset/tau_hip_adduction_l	/forceset/tau_hip_rotation_l	/forceset/tau_knee_flexion_l	/forceset/tau_ankle_angle_l	/forceset/tau_subtalar_angle_l	/forceset/tau_lumbar_extension	lambda_cid13_p0	lambda_cid13_p1	lambda_cid13_p2	lambda_cid13_p3	lambda_cid13_p4	lambda_cid13_p5	lambda_cid14_p0	/jointset/ground_pelvis/pelvis_tilt/accel	/jointset/ground_pelvis/pelvis_tx/accel	/jointset/ground_pelvis/pelvis_ty/accel	/jointset/hip_l/hip_flexion_l/accel	/jointset/hip_l/hip_adduction_l/accel	/jointset/hip_l/hip_rotation_l/accel	/jointset/back/lumbar_extension/accel	/jointset/patellofemoral_l/patellar_flexion_l/accel	/jointset/knee_l/knee_flexion_l/accel	/jointset/knee_l/knee_adduction_l/accel	/jointset/knee_l/knee_rotation_l/accel	/jointset/ankle_l/ankle_angle_l/accel	/jointset/subtalar_l/subtalar_angle_l/accel	gamma_cid13_p0	gamma_cid13_p1	gamma_cid13_p2	gamma_cid13_p3	gamma_cid13_p4	gamma_cid13_p5	gamma_cid14_p0
0.5	-0.4404792344250053	-0.06482473365859467	0.7773596943928984	1.204574840572956	-0.3084303910905918	-0.06760651419889999	-0.3233580659840193	0.6282829739808271	0.6282829739810178	-0.1730122156078912	0.1745073274487156	0.02689838082305046	-0.04905550376978767	-0.7369315820254264	-0.2612161668908533	-0.4402063369337715	2.225639234841667	-0.04852919842688084	0.56421780989738	-0.6293365631021146	1.620677489925608	1.620677489925648	-0.006838960193082423	4.957416408529443e-05	0.2144849508280978	-0.02490929225789091	-0.2407343236559646	0.02930550612581669	-0.01969883583818123	-0.187475289161873	0.1308900316787666	0.0353589170872507	0.2166736929802942	2.942849710207832	-18.93718783471054	6.118268971971493	-3.569419811190251	-608.9651176890161	-53.02571778337648	-31.67601647846459	0.5421602947983204	0.6236322738760077	-0.2667254809390595	-1.42105568421538	0.5111060825880052	-0.2555257219042353	1.659335920161641	-0.9837531883681856	-0.9837531883681838	0.002217079819197464	-0.02854403280367418	-0.03531172323719391	0.4994783918346171	-3.530826119266362e-08	-1.017018542857092e-06	2.581729564098273e-07	-1.254952342485762e-07	-1.770475404385239e-07	-1.01226190576799e-07	-1.552271538690905e-07
0.51	-0.4478199445257726	-0.06740538263744256	0.7729452141015051	1.226756359354709	-0.3088910857832626	-0.06197884438609799	-0.3295683022113903	0.644438290145815	0.644438290146043	-0.173081674876757	0.1745079120458027	0.02904081061699093	-0.04928065199929024	-0.7311164864231157	-0.2548876042863787	-0.4425997816168211	2.210367801736494	-0.0436195861697133	0.5612422924842614	-0.6126369726491532	1.610164233914728	1.61016423391465	-0.007048083536401949	6.772234661904386e-05	0.2139613761699855	-0.02013114797840486	-0.2487425887086712	0.03021078202346505	-0.01976280144490297	-0.1883917711251573	0.1304469589076346	0.03605596420291116	0.2228667957636727	2.587376224838351	-19.06945717049282	6.015746008113243	-3.574026875988343	-613.077699431759	-52.64174206587552	-30.80961313052052	0.6152654394032784	0.641347732721297	-0.2121976083016058	-1.624709251950448	0.4795043783039776	-0.3298037560321627	1.686327066347655	-1.118307467330779	-1.118307467348586	-0.03191606833875447	0.01695082111477594	-0.06683587149561285	0.4654879024475633	-4.681416054832208e-08	-9.476151225744315e-07	2.942689506018492e-07	-1.112750269185023e-07	-1.726560164503965e-07	-8.148668226972386e-08	-1.551936620357136e-07
0.52	-0.4550996874212279	-0.06992197009444828	0.7685094906340185	1.248776259379753	-0.3093029612371543	-0.05638317754843496	-0.3356093312425349	0.6604818346187146	0.6604818346189856	-0.173153113184444	0.1745086694401751	0.03117681355747109	-0.04945831769470967	-0.7247381409625632	-0.2484038625224171	-0.4444549721524093	2.193315483500034	-0.03876535067163084	0.5578172148704834	-0.595495123856814	1.59832315150853	1.598323151508333	-0.00723476795697042	8.413362246764896e-05	0.2131995801359777	-0.01541278544124031	-0.2567508537613759	0.03111605792110677	-0.01982676705162391	-0.1893082530884432	0.1300038861365002	0.03675301131856418	0.2290598985470554	2.224289181918325	-19.202642931863	5.915938664729318	-3.566653883289601	-617.3107676878229	-52.30711000558325	-29.92593454444607	0.6548102664466873	0.6546681057734184	-0.1590746514467953	-1.777232710472831	0.5000307307709875	-0.3454377620361125	1.747787588037263	-1.249318467431957	-1.249318467431944	0.006704864369400445	-0.02889141414069857	-0.08295599841628815	0.4875220433703151	-6.373355931204708e-08	-8.691655178141873e-07	3.605339339275681e-07	-9.152689558824477e-08	-1.719052324927188e-07	-6.003122722716941e-08	-1.584778784217079e-07
0.53	-0.4623129291245171	-0.07237303136530233	0.7640579148210928	1.270616971066758	-0.3096665920138075	-0.05082378787082357	-0.3414768416883842	0.6764004319003769	0.676400431900395	-0.1732263141502787	0.1745094138712406	0.03330401223108842	-0.04958912324084132	-0.7178209923724884	-0.2417903146288255	-0.4457688438840186	2.174545546422014	-0.03397168330797199	0.5539711020613777	-0.57794845470958	1.585187492140882	1.585187492140691	-0.007384729861775768	7.78320714000336e-05	0.212201733420309	-0.01075998282047941	-0.2646155550058235	0.03188137808456253	-0.01991345473597764	-0.1901853200748332	0.1294950029621451	0.03734719552987079	0.2350840921242211	1.841851546696574	-19.28893383460061	5.809987506377238	-3.501431928369797	-621.4480403974652	-51.90516317981324	-29.02846604479871	0.7235333333975112	0.6673934532620753	-0.103875753887433	-1.969088212231618	0.4674555831704162	-0.4178013973462633	1.766883168622936	-1.376979533227213	-1.37697953322654	-0.02286940248913458	0.01534440677826607	-0.1139710825593421	0.4524948073209798	-1.062243652266098e-07	-7.433127277746535e-07	5.527014041609234e-07	-4.401226952582491e-08	-1.904425538855246e-07	-2.475427840306375e-08	-1.751792301223369e-07
0.54	-0.469454326106285	-0.07475741809279866	0.759595933826877	1.29226154058183	-0.3099826019480202	-0.04530557999270727	-0.3471671301246498	0.6921814146160001	0.6921814146157733	-0.173300419272078	0.1745104640732645	0.03542007802266602	-0.04967373367358705	-0.7103691966580215	-0.2350689538508736	-0.4465360084103889	2.154087049113395	-0.02924118218402897	0.5495808549723343	-0.5600507219400803	1.570800238301393	1.570800238301205	-0.0074155991499264	0.0001452878150544044	0.2109730037279521	-0.006173762764038452	-0.27248025625027	0.0326466982480118	-0.02000014242031543	-0.1910623870612251	0.1289861197877888	0.03794137974117145	0.2411082857013895	1.452293666237256	-19.37651839701299	5.707144427797439	-3.429802845862948	-625.7011278230743	-51.55464695218753	-28.12067242528102	0.7617396913251324	0.676230682645471	-0.04973321039900417	-2.114944756592643	0.4873974828278228	-0.454264618023609	1.818000312490459	-1.49963736180035	-1.499637361800346	0.03052338770033755	-0.01413995519630645	-0.1291325937539423	0.4742055305063264	-1.770069407548655e-07	-5.650138604048411e-07	8.841652428878353e-07	3.422273368707275e-08	-2.303199067299296e-07	2.581453588148173e-08	-2.067250719583065e-07
0.55	-0.4765186547189468	-0.07707412270717373	0.755129029606593	1.313693199146035	-0.3102518511224535	-0.03983266173464193	-0.3526767980498148	0.7078120598918171	0.7078120598919528	-0.1733752817188215	0.1745115681458543	0.03752259176342473	-0.0497130768219111	-0.702412942349829	-0.2282599725599308	-0.4467524434536038	2.131976497005427	-0.02462305317493935	0.5449147467689023	-0.5418392281538413	1.555129559642148	1.555129559641955	-0.007536223314666117	8.97049753754389e-05	0.2094937715861139	-0.001709880738791814	-0.280109087222732	0.03320351385218748	-0.0200881231992317	-0.1920345466453635	0.1285885545839982	0.03839610440933816	0.246901899376178	1.100511432341127	-19.41242575350374	5.598661789902743	-3.343866642110283	-629.8407606229242	-51.14597259778813	-27.20748663171226	0.8250787515811974	0.6850467012203718	0.006209763395383525	-2.299368294469422	0.4467781627904541	-0.4861924345017044	1.829269152591417	-1.630626914509806	-1.630626914510686	-0.0302851873710632	0.000628636298744108	-0.162714871508862	0.4301775139985297	-2.084453229074798e-07	-4.444807164284005e-07	1.035799605137561e-06	7.463772985803595e-08	-2.407754764893915e-07	5.984106549862214e-08	-2.169399516903983e-07
